<svg width="199" height="195" viewBox="0 0 199 195" fill="none" xmlns="http://www.w3.org/2000/svg">
<path d="M101.5 183.637C149.113 183.637 187.71 145.039 187.71 97.4265C187.71 49.8137 149.113 11.2159 101.5 11.2159C53.8871 11.2159 15.2893 49.8137 15.2893 97.4265C15.2893 145.039 53.8871 183.637 101.5 183.637Z" stroke="#102A43" stroke-width="4" stroke-miterlimit="10"/>
<path d="M187.417 97.7205C186.461 111.758 171.909 130.72 156.402 139.466C140.379 149.388 129.576 151.593 123.769 154.974C117.743 158.134 115.611 161.441 114.95 167.762C113.7 173.274 115.17 183.711 101.28 183.49C87.1684 183.27 68.28 167.909 59.534 152.401C49.6121 136.379 47.4072 125.575 44.0264 119.769C40.8661 113.743 37.5588 111.611 31.2381 110.95C25.7259 109.7 15.2895 111.17 15.51 97.2795C15.7305 86.5491 31.0911 64.2799 46.5988 55.5339C62.6208 45.612 73.4247 43.4071 79.2309 40.0263C85.2576 36.866 87.3889 33.5587 88.0504 27.238C89.2998 21.7258 87.8299 11.2894 101.721 11.5099C117.669 11.7304 134.72 27.091 143.466 42.5251C153.388 58.5472 155.593 69.3511 158.974 75.1573C162.134 81.1839 165.441 83.3153 171.762 83.9768C177.201 85.2262 187.637 83.7563 187.417 97.7205Z" stroke="#102A43" stroke-width="4" stroke-miterlimit="10"/>
<path d="M101.5 11.2894C165.809 132.778 37.1913 61.3401 101.5 182.755" stroke="#102A43" stroke-width="4" stroke-miterlimit="10"/>
<path d="M15.7305 96.9856C137.219 32.6767 65.7811 161.294 187.196 96.9856" stroke="#102A43" stroke-width="4" stroke-miterlimit="10"/>
<path d="M121.579 97.4265C121.579 108.516 112.589 117.505 101.5 117.505C90.411 117.505 81.4214 108.516 81.4214 97.4265C81.4214 86.3373 90.411 77.3477 101.5 77.3477C112.589 77.3477 121.579 86.3373 121.579 97.4265Z" fill="black" stroke="#444444"/>
<g filter="url(#filter0_d)">
<path d="M15.2894 107.716C20.9721 107.716 25.5788 103.109 25.5788 97.4265C25.5788 91.7438 20.9721 87.1371 15.2894 87.1371C9.60673 87.1371 5 91.7438 5 97.4265C5 103.109 9.60673 107.716 15.2894 107.716Z" fill="black"/>
<path d="M15.2894 107.716C20.9721 107.716 25.5788 103.109 25.5788 97.4265C25.5788 91.7438 20.9721 87.1371 15.2894 87.1371C9.60673 87.1371 5 91.7438 5 97.4265C5 103.109 9.60673 107.716 15.2894 107.716Z" stroke="#F0F4F8" stroke-width="2" stroke-miterlimit="10"/>
</g>
<path d="M187.711 107.716C193.393 107.716 198 103.109 198 97.4265C198 91.7438 193.393 87.1371 187.711 87.1371C182.028 87.1371 177.421 91.7438 177.421 97.4265C177.421 103.109 182.028 107.716 187.711 107.716Z" fill="black" stroke="#F0F4F8" stroke-width="2" stroke-miterlimit="10"/>
<path d="M101.5 21.5788C107.183 21.5788 111.79 16.9721 111.79 11.2894C111.79 5.60673 107.183 1 101.5 1C95.8174 1 91.2107 5.60673 91.2107 11.2894C91.2107 16.9721 95.8174 21.5788 101.5 21.5788Z" fill="black" stroke="#F0F4F8" stroke-width="2" stroke-miterlimit="10"/>
<path d="M101.5 193.926C107.183 193.926 111.79 189.32 111.79 183.637C111.79 177.954 107.183 173.348 101.5 173.348C95.8174 173.348 91.2107 177.954 91.2107 183.637C91.2107 189.32 95.8174 193.926 101.5 193.926Z" fill="black" stroke="#F0F4F8" stroke-width="2" stroke-miterlimit="10"/>
<defs>
<filter id="filter0_d" x="0" y="86.1371" width="30.5788" height="30.5788" filterUnits="userSpaceOnUse" color-interpolation-filters="sRGB">
<feFlood flood-opacity="0" result="BackgroundImageFix"/>
<feColorMatrix in="SourceAlpha" type="matrix" values="0 0 0 0 0 0 0 0 0 0 0 0 0 0 0 0 0 0 127 0"/>
<feOffset dy="4"/>
<feGaussianBlur stdDeviation="2"/>
<feColorMatrix type="matrix" values="0 0 0 0 0 0 0 0 0 0 0 0 0 0 0 0 0 0 0.25 0"/>
<feBlend mode="normal" in2="BackgroundImageFix" result="effect1_dropShadow"/>
<feBlend mode="normal" in="SourceGraphic" in2="effect1_dropShadow" result="shape"/>
</filter>
</defs>
</svg>
